<svg xmlns="http://www.w3.org/2000/svg" width="2400" height="1350" viewBox="0 0 2400 1350" role="img" aria-label="Majestic horse with glowing digital muscles">
  <defs>
    <linearGradient id="g0" x1="0" y1="0" x2="1" y2="1">
      <stop offset="0" stop-color="#05070c"/>
      <stop offset="1" stop-color="#0b1020"/>
    </linearGradient>
    <radialGradient id="goldGlow" cx="30%" cy="24%" r="70%">
      <stop offset="0" stop-color="rgba(212,175,55,.26)"/>
      <stop offset="0.55" stop-color="rgba(212,175,55,.08)"/>
      <stop offset="1" stop-color="rgba(212,175,55,0)"/>
    </radialGradient>
    <radialGradient id="blueGlow" cx="80%" cy="18%" r="70%">
      <stop offset="0" stop-color="rgba(255,210,160,.08)"/>
      <stop offset="1" stop-color="rgba(120,180,255,0)"/>
    </radialGradient>
    <filter id="blur" x="-20%" y="-20%" width="140%" height="140%">
      <feGaussianBlur stdDeviation="8"/>
    </filter>
  </defs>

  <rect width="2400" height="1350" fill="url(#g0)"/>
  <rect width="2400" height="1350" fill="url(#goldGlow)"/>
  <rect width="2400" height="1350" fill="url(#blueGlow)"/>

  <g opacity="0.8"><path d="M 203.6 252.8 Q 427.8 692.6 903.1 1236.0" stroke="rgba(243,210,122,0.064)" stroke-width="1.78" fill="none"/><path d="M 2135.5 1002.5 Q 1257.7 899.2 862.9 868.3" stroke="rgba(243,210,122,0.063)" stroke-width="1.50" fill="none"/><path d="M -180.2 194.6 Q 752.2 390.7 2299.0 420.7" stroke="rgba(243,210,122,0.138)" stroke-width="1.19" fill="none"/><path d="M 354.8 61.1 Q 273.1 600.3 700.4 720.5" stroke="rgba(243,210,122,0.104)" stroke-width="1.94" fill="none"/><path d="M 891.5 1109.5 Q 1800.2 600.4 2025.9 99.6" stroke="rgba(243,210,122,0.105)" stroke-width="1.61" fill="none"/><path d="M 1723.5 1144.2 Q 2035.1 747.6 1631.1 31.2" stroke="rgba(243,210,122,0.079)" stroke-width="1.61" fill="none"/><path d="M 1880.3 807.9 Q 1676.3 623.6 1141.1 814.9" stroke="rgba(243,210,122,0.091)" stroke-width="1.47" fill="none"/><path d="M 1269.1 1189.2 Q 1464.3 1088.9 1580.6 768.2" stroke="rgba(243,210,122,0.137)" stroke-width="1.52" fill="none"/><path d="M 1949.2 450.4 Q 1664.2 783.4 1194.5 1202.6" stroke="rgba(243,210,122,0.128)" stroke-width="1.15" fill="none"/><path d="M 1735.9 173.8 Q 1472.6 59.0 1780.5 175.1" stroke="rgba(243,210,122,0.109)" stroke-width="1.86" fill="none"/><path d="M 2360.1 951.8 Q 1906.3 454.2 1953.1 44.3" stroke="rgba(243,210,122,0.095)" stroke-width="1.89" fill="none"/><path d="M 1196.0 896.9 Q 1420.3 533.0 1039.7 428.9" stroke="rgba(243,210,122,0.135)" stroke-width="1.26" fill="none"/><path d="M 788.8 407.8 Q 582.0 526.3 182.6 779.2" stroke="rgba(243,210,122,0.076)" stroke-width="1.68" fill="none"/><path d="M 1369.8 18.2 Q 854.0 485.7 12.9 785.0" stroke="rgba(243,210,122,0.091)" stroke-width="1.64" fill="none"/></g>
  <g><circle cx="2339.1" cy="174.2" r="2.2" fill="rgba(212,175,55,0.062)"/><circle cx="2285.6" cy="918.6" r="3.6" fill="rgba(212,175,55,0.102)"/><circle cx="1396.8" cy="656.6" r="3.1" fill="rgba(212,175,55,0.098)"/><circle cx="387.6" cy="420.0" r="5.4" fill="rgba(212,175,55,0.093)"/><circle cx="954.0" cy="91.8" r="2.7" fill="rgba(212,175,55,0.121)"/><circle cx="2173.3" cy="982.9" r="3.6" fill="rgba(212,175,55,0.067)"/><circle cx="1954.1" cy="577.9" r="2.6" fill="rgba(212,175,55,0.099)"/><circle cx="2358.8" cy="902.9" r="4.9" fill="rgba(212,175,55,0.097)"/><circle cx="1640.1" cy="574.4" r="4.2" fill="rgba(212,175,55,0.110)"/><circle cx="1269.8" cy="912.1" r="3.4" fill="rgba(212,175,55,0.076)"/><circle cx="1749.5" cy="1332.0" r="2.3" fill="rgba(212,175,55,0.050)"/><circle cx="2332.9" cy="1103.9" r="5.9" fill="rgba(212,175,55,0.135)"/><circle cx="602.7" cy="595.6" r="3.3" fill="rgba(212,175,55,0.092)"/><circle cx="676.5" cy="483.5" r="5.2" fill="rgba(212,175,55,0.067)"/><circle cx="1774.7" cy="498.1" r="2.9" fill="rgba(212,175,55,0.104)"/><circle cx="2029.8" cy="767.9" r="2.1" fill="rgba(212,175,55,0.112)"/><circle cx="735.6" cy="785.1" r="4.5" fill="rgba(212,175,55,0.094)"/><circle cx="985.6" cy="107.7" r="3.9" fill="rgba(212,175,55,0.095)"/><circle cx="229.1" cy="836.0" r="4.2" fill="rgba(212,175,55,0.065)"/><circle cx="2027.1" cy="1239.3" r="4.4" fill="rgba(212,175,55,0.130)"/><circle cx="1085.1" cy="1010.1" r="5.4" fill="rgba(212,175,55,0.137)"/><circle cx="1754.3" cy="1179.0" r="5.7" fill="rgba(212,175,55,0.094)"/><circle cx="1978.3" cy="581.9" r="4.3" fill="rgba(212,175,55,0.064)"/><circle cx="2062.2" cy="841.6" r="3.2" fill="rgba(212,175,55,0.114)"/><circle cx="1266.8" cy="1005.3" r="4.0" fill="rgba(212,175,55,0.074)"/><circle cx="1856.5" cy="1341.9" r="3.6" fill="rgba(212,175,55,0.111)"/><circle cx="1306.3" cy="679.1" r="5.9" fill="rgba(212,175,55,0.061)"/><circle cx="598.9" cy="405.3" r="4.8" fill="rgba(212,175,55,0.068)"/><circle cx="1345.7" cy="1129.5" r="3.0" fill="rgba(212,175,55,0.094)"/><circle cx="1542.7" cy="1093.9" r="3.3" fill="rgba(212,175,55,0.130)"/><circle cx="1032.5" cy="1169.2" r="2.7" fill="rgba(212,175,55,0.070)"/><circle cx="541.4" cy="1151.0" r="5.0" fill="rgba(212,175,55,0.056)"/><circle cx="1236.7" cy="688.4" r="4.8" fill="rgba(212,175,55,0.114)"/><circle cx="1958.0" cy="1.9" r="5.3" fill="rgba(212,175,55,0.103)"/><circle cx="2289.8" cy="45.7" r="2.8" fill="rgba(212,175,55,0.099)"/><circle cx="1011.9" cy="1240.4" r="5.6" fill="rgba(212,175,55,0.060)"/><circle cx="2092.4" cy="780.9" r="2.7" fill="rgba(212,175,55,0.121)"/><circle cx="819.9" cy="635.6" r="5.7" fill="rgba(212,175,55,0.111)"/></g>

  <g filter="url(#blur)" opacity="0.9">
    <circle cx="1752.0" cy="621.0" r="210" fill="rgba(255,255,255,.04)"/>
  </g>

  <g><circle cx="1752.0" cy="621.0" r="160" fill="none" stroke="rgba(212,175,55,0.180)" stroke-width="1.2"/><circle cx="1752.0" cy="621.0" r="215" fill="none" stroke="rgba(212,175,55,0.150)" stroke-width="1.2"/><circle cx="1752.0" cy="621.0" r="270" fill="none" stroke="rgba(212,175,55,0.120)" stroke-width="1.2"/><circle cx="1752.0" cy="621.0" r="325" fill="none" stroke="rgba(212,175,55,0.090)" stroke-width="1.2"/></g>

  <g>
    <rect x="1562.0" y="555.0" width="380" height="132" rx="26" fill="rgba(255,255,255,.05)" stroke="rgba(255,255,255,.10)"/>
    <text x="1752.0" y="613.0" text-anchor="middle" font-family="ui-sans-serif,system-ui" font-size="50" fill="rgba(245,247,255,.92)" letter-spacing="2">W3</text>
    <text x="1752.0" y="655.0" text-anchor="middle" font-family="ui-sans-serif,system-ui" font-size="22" fill="rgba(245,247,255,.60)" letter-spacing="1">w3.horse</text>
  </g>

  <g opacity="0.9">
    <circle cx="432.0" cy="1053.0" r="280" fill="rgba(212,175,55,.06)"/>
    <circle cx="432.0" cy="1053.0" r="279" fill="none" stroke="rgba(255,255,255,.06)"/>
  </g>
</svg>